<svg xmlns="http://www.w3.org/2000/svg" viewBox="0 0 999.45 999.57"><defs><style>.cls-1{isolation:isolate;}.cls-2{mix-blend-mode:screen;}.cls-3{fill:#f9f871;fill-rule:evenodd;}</style></defs><title>Pattern 2</title><g class="cls-1"><g id="Layer_2" data-name="Layer 2"><g id="Layer_1-2" data-name="Layer 1"><g class="cls-2"><path class="cls-3" d="M999.45,51.4c-2.33-3.69-4.71-7.36-7-11.1a3.35,3.35,0,0,0-3.13-1.84q-28.55-.7-57.08-1.5a9.18,9.18,0,0,0-1.37.22,12.54,12.54,0,0,0,.85,2.18q14.55,23.73,29.11,47.44a4.24,4.24,0,0,0,4,2.32c11.54.22,23.07.54,34.61.83v2.86c-1.4-.17-2.81-.44-4.22-.48-10.56-.32-21.12-.63-31.69-.84a4.22,4.22,0,0,1-4.06-2.16q-16.34-26.74-32.79-53.42a12.7,12.7,0,0,1-.55-1.25,10,10,0,0,1,1.94-.37c20.66.54,41.31,1.12,62,1.62a4.54,4.54,0,0,1,4.24,2.56c1.59,2.72,3.43,5.3,5.16,7.93Z"/><path class="cls-3" d="M999.45,521.85c-1.53.17-3,.44-4.57.49-9.87.3-19.73.61-29.6.8a4.75,4.75,0,0,0-4.6,2.48c-9.51,15.64-19.14,31.21-28.71,46.82-.48.77-.84,1.61-1.49,2.87,1.45,0,2.48,0,3.49,0,18.07-.49,36.14-1,54.2-1.43a5,5,0,0,0,4.84-2.8c2-3.64,4.28-7.12,6.44-10.67v5c-1.76,2.8-3.62,5.54-5.23,8.43-1,1.8-2.31,2.33-4.29,2.38-18.55.44-37.09,1-55.63,1.47-2.6.07-5.2,0-8.11,0a19.07,19.07,0,0,1,1-2.16q16.05-26.14,32.08-52.28a4.85,4.85,0,0,1,4.55-2.65c11.89-.23,23.77-.58,35.66-.89Z"/><path class="cls-3" d="M999.45,134.21c-1.53.17-3,.44-4.57.48-9.87.31-19.73.61-29.6.8a4.79,4.79,0,0,0-4.6,2.49c-9.51,15.64-19.14,31.21-28.71,46.81-.48.78-.85,1.62-1.49,2.87,1.45,0,2.48,0,3.49,0,18.07-.49,36.14-1,54.2-1.44a5,5,0,0,0,4.84-2.8c2-3.63,4.28-7.11,6.44-10.66v5c-1.76,2.8-3.62,5.54-5.23,8.43-1,1.8-2.31,2.33-4.29,2.38-17.83.41-35.66.94-53.49,1.41-3.31.08-6.63,0-10.26,0a24.48,24.48,0,0,1,1.16-2.41c10.57-17.23,21.2-34.42,31.7-51.68a5.38,5.38,0,0,1,5.1-3c11.78-.21,23.54-.57,35.31-.87Z"/><path class="cls-3" d="M999.45,826.69c-2.33-3.7-4.71-7.36-7-11.1a3.35,3.35,0,0,0-3.13-1.84q-28.53-.71-57.08-1.5a8.9,8.9,0,0,0-1.36.22,12.07,12.07,0,0,0,.84,2.18q14.55,23.72,29.11,47.44a4.25,4.25,0,0,0,4,2.32c11.54.22,23.07.54,34.61.83v2.85c-1.4-.16-2.81-.43-4.22-.47-10.56-.32-21.12-.63-31.69-.85a4.22,4.22,0,0,1-4.06-2.15q-16.34-26.75-32.79-53.43a10.85,10.85,0,0,1-.58-1.32,21,21,0,0,1,2.68-.29c20.3.53,40.6,1.12,60.9,1.6a5,5,0,0,1,4.79,2.88c1.48,2.64,3.3,5.1,5,7.63Z"/><path class="cls-3" d="M999.45,909.5c-1.53.16-3,.44-4.57.48-9.87.31-19.73.61-29.6.8a4.75,4.75,0,0,0-4.6,2.48c-9.51,15.64-19.14,31.22-28.71,46.82-.48.77-.84,1.61-1.49,2.85,1.69,0,2.95,0,4.21,0,17.71-.49,35.41-1,53.12-1.41,2.55-.06,4.16-.84,5.39-3.11,1.92-3.55,4.15-6.92,6.25-10.36v5c-1.76,2.81-3.62,5.55-5.23,8.43-1,1.81-2.31,2.33-4.29,2.38-17.83.42-35.66.95-53.49,1.41-3.31.09-6.63,0-10.23,0a18.32,18.32,0,0,1,.95-2.1q16.05-26.13,32.08-52.28a4.85,4.85,0,0,1,4.55-2.65c11.89-.23,23.77-.58,35.66-.88Z"/><path class="cls-3" d="M999.45,633.22c-2.17-3.54-4.45-7-6.45-10.65a4.92,4.92,0,0,0-4.84-2.79c-10.81-.18-21.62-.52-32.44-.81-7.49-.2-15-.44-22.46-.64-.78,0-1.56.07-2.76.13.73,1.35,1.23,2.39,1.83,3.37,9.39,15.29,18.83,30.56,28.15,45.89a5,5,0,0,0,4.8,2.81c9.15.1,18.3.42,27.45.71,2.24.07,4.48.35,6.72.53v2.14c-11.89-.3-23.77-.62-35.66-.88a4.56,4.56,0,0,1-4.38-2.32c-10.82-17.77-21.75-35.47-32.64-53.19-.23-.38-.42-.79-.8-1.52a19.31,19.31,0,0,1,2.25-.24c20.57.56,41.13,1.18,61.69,1.66a4.7,4.7,0,0,1,4.5,2.68c1.56,2.78,3.34,5.42,5,8.12Z"/><path class="cls-3" d="M999.45,716c-11.42.29-22.84.61-34.25.84a4.53,4.53,0,0,0-4.37,2.32c-9.64,15.85-19.39,31.63-29.11,47.44-.35.58-.61,1.21-1.07,2.14a19.08,19.08,0,0,0,2.33.28c18.67-.5,37.34-1,56-1.5a3.88,3.88,0,0,0,3.68-2.16c2.17-3.65,4.51-7.21,6.78-10.81v5a82.06,82.06,0,0,0-4.76,7.34c-1.28,2.48-3,3.18-5.69,3.22-10.34.16-20.67.52-31,.8l-28.14.75c-1.15,0-2.3,0-3.9,0,.69-1.3,1.12-2.24,1.65-3.1q15.76-25.67,31.49-51.32a5,5,0,0,1,4.8-2.79c10.45-.15,20.9-.49,31.35-.81,1.4,0,2.8-.32,4.2-.49Z"/><path class="cls-3" d="M999.45,245.58c-2.17-3.54-4.45-7-6.45-10.65a4.93,4.93,0,0,0-4.84-2.8c-10.93-.18-21.86-.51-32.79-.81-7.37-.2-14.74-.43-22.1-.64-.79,0-1.57.08-2.74.14.65,1.24,1.09,2.18,1.63,3.06,9.45,15.39,18.94,30.76,28.32,46.2a5,5,0,0,0,4.8,2.8c9.15.11,18.3.42,27.45.71,2.24.07,4.48.36,6.72.54v2.14c-11.89-.3-23.78-.62-35.66-.89a4.57,4.57,0,0,1-4.38-2.31c-10.82-17.77-21.75-35.47-32.64-53.2-.23-.38-.4-.8-.75-1.52a24.83,24.83,0,0,1,2.56-.22c20.33.55,40.65,1.18,61,1.63a5.14,5.14,0,0,1,5,3c1.47,2.69,3.23,5.21,4.86,7.81Z"/><path class="cls-3" d="M703.9,0l-8.22,15.62L724.6,69c9.89-18.28,19.43-35.89,28.91-53.42C750.71,10.29,748,5.14,745.3,0h2.86l8.16,15.63Q740.72,44.47,725,73.54c-2.05-2-28.76-50.67-32-58.11L701,0Z"/><path class="cls-3" d="M31.41,0C28.7,5.14,26,10.29,23.2,15.62c9.48,17.52,19,35.13,28.92,53.41L81,15.61,72.82,0h2.85l8.17,15.63L52.5,73.54c-2-2-28.76-50.65-32-58.11q4-7.69,8.06-15.43Z"/><path class="cls-3" d="M367.66,0l-8.22,15.62L388.36,69l28.91-53.42c-2.8-5.32-5.5-10.47-8.21-15.61h2.86c2.68,5.15,5.37,10.3,8.16,15.63q-15.6,28.84-31.34,57.91c-2.05-2-28.78-50.69-32-58.11L364.8,0Z"/><path class="cls-3" d="M0,284.13H14a12.43,12.43,0,0,0-.74-1.92C9.53,276.07,5.78,269.93,2,263.83A10.39,10.39,0,0,0,0,262v-5a10.3,10.3,0,0,1,1.71,1.72q8.24,13.3,16.4,26.66a7.45,7.45,0,0,1,.4,1c-2.43.87-12.59.82-18.51-.07Z"/><path class="cls-3" d="M0,671.77H14a12.43,12.43,0,0,0-.74-1.92C9.53,663.71,5.78,657.57,2,651.47a10.73,10.73,0,0,0-2-1.83v-5a10.3,10.3,0,0,1,1.71,1.72Q10,659.67,18.11,673a7.45,7.45,0,0,1,.4,1c-2.43.87-12.65.83-18.51-.07Z"/><path class="cls-3" d="M0,931.63a7.8,7.8,0,0,0,1.78-1.52q6-9.6,11.86-19.3a8,8,0,0,0,.45-1.31H0v-2.14l18.85-.92a22.44,22.44,0,0,1-1.09,2.45Q9.87,921.78,1.92,934.62a13.41,13.41,0,0,1-1.92,2Z"/><path class="cls-3" d="M0,156.34a7.77,7.77,0,0,0,1.78-1.51q6-9.62,11.86-19.31a8.09,8.09,0,0,0,.46-1.31H0v-2.14l18.94-.92c-.81,1.57-1.22,2.49-1.74,3.36-5,8.08-9.91,16.16-14.92,24.22A20.69,20.69,0,0,1,0,161.34Z"/><path class="cls-3" d="M0,865.24l14.11.88a9.11,9.11,0,0,0-.54-1.91q-5.91-9.69-11.88-19.34A11.22,11.22,0,0,0,0,843.11v-4.29c.47.29,1.13.47,1.4.89,5.79,9.32,11.54,18.68,17.5,28.35-3.46.86-6.58.09-9.68.14s-6.15-.06-9.22-.11Z"/><path class="cls-3" d="M0,350.52a11.16,11.16,0,0,0,1.69-1.75c4-6.42,7.94-12.87,11.89-19.32a15.62,15.62,0,0,0,.67-1.6A84.7,84.7,0,0,0,0,328.39v-2.86H18.63a22.66,22.66,0,0,1-1,2.15c-5.07,8.26-10.13,16.53-15.27,24.75A14.55,14.55,0,0,1,0,354.8Z"/><path class="cls-3" d="M0,90l14.11.88a9.11,9.11,0,0,0-.54-1.91Q7.66,79.23,1.69,69.58A11.67,11.67,0,0,0,0,67.82V63.54c.47.28,1.13.46,1.4.88C7.19,73.75,12.94,83.1,19.09,93.08c-6.75.13-12.93-.37-19.09-.27Z"/><path class="cls-3" d="M0,738.16a10.34,10.34,0,0,0,1.69-1.75c4-6.42,7.94-12.87,11.89-19.32a12.7,12.7,0,0,0,.66-1.59A84.64,84.64,0,0,0,0,716v-2.85H18.63a18.49,18.49,0,0,1-.84,1.84c-5.13,8.36-10.25,16.73-15.45,25.06A15,15,0,0,1,0,742.45Z"/><path class="cls-3" d="M556.46,171c-.8-1.37-1.37-2.26-1.87-3.19q-14.34-26.49-28.7-53c-.91-1.69-1.2-3-.18-4.9,9.92-18.14,19.73-36.34,29.58-54.52.28-.51.62-1,1.12-1.77.62.92,1.18,1.61,1.59,2.38q14.52,26.81,29,53.6c.9,1.66,1.3,3,.25,4.9-9.93,18.14-19.74,36.34-29.58,54.52C557.42,169.57,557.07,170.05,556.46,171Zm.15-112.31c-.63.94-1.07,1.49-1.4,2.1-8.9,16.42-17.76,32.85-26.71,49.24a4.18,4.18,0,0,0,.08,4.59q13.32,24.44,26.53,48.93a20.75,20.75,0,0,0,1.42,2,16.44,16.44,0,0,0,1-1.38c9-16.62,18-33.27,27-49.86,1-1.75.6-3-.26-4.59Q575.14,93,566.1,76.19Z"/><path class="cls-3" d="M892.79,53.56c.75,1.3,1.3,2.21,1.8,3.14,9.51,17.56,19,35.13,28.56,52.65a5.32,5.32,0,0,1,0,5.84c-9.59,17.52-19,35.09-28.56,52.65-.5.93-1.06,1.82-1.8,3-.67-1-1.23-1.69-1.65-2.47q-14.52-26.79-29-53.6c-.84-1.54-1.3-2.8-.32-4.59q15-27.53,29.9-55.15C891.94,54.67,892.25,54.31,892.79,53.56Zm-.07,112.28c.81-1.38,1.37-2.27,1.87-3.2,8.56-15.79,17-31.62,25.71-47.35a5.65,5.65,0,0,0-.09-6.19c-8.63-15.74-17.14-31.56-25.7-47.35-.5-.92-1.08-1.81-1.79-3-.71,1.17-1.28,2.06-1.78,3-8.61,15.89-17.16,31.83-25.87,47.66a5.31,5.31,0,0,0,.09,5.86c8.62,15.76,17.13,31.57,25.68,47.36C891.34,163.55,891.91,164.45,892.72,165.84Z"/><path class="cls-3" d="M892.72,828.81c.73,1.21,1.25,2,1.7,2.82q14.42,26.65,28.85,53.29c.9,1.65,1.32,3,.26,4.91-9.94,18.13-19.74,36.33-29.59,54.51-.27.51-.61,1-1.13,1.8a26.72,26.72,0,0,1-1.64-2.39q-14.52-26.81-29-53.6c-.91-1.68-1.22-3-.2-4.9,9.93-18.14,19.74-36.34,29.59-54.52C891.81,830.21,892.15,829.73,892.72,828.81Zm0,5.19c-.77,1.3-1.34,2.2-1.84,3.12-8.56,15.8-17.06,31.62-25.71,47.36a5.64,5.64,0,0,0,0,6.18c8.65,15.74,17.15,31.56,25.7,47.35.5.93,1.08,1.82,1.81,3,.71-1.15,1.29-2,1.78-2.91,8.61-15.89,17.17-31.82,25.86-47.67a5.31,5.31,0,0,0,0-5.86c-8.74-16-17.36-32-26-48C893.91,835.9,893.46,835.21,892.73,834Z"/><path class="cls-3" d="M220.18,171c-.89-1.54-1.49-2.55-2.05-3.58-9.39-17.35-18.73-34.72-28.22-52a5.6,5.6,0,0,1-.06-6.17c9.54-17.4,18.94-34.88,28.39-52.33.56-1,1.17-2,1.92-3.34.67,1,1.21,1.75,1.64,2.53q14.52,26.81,29,53.6a4.49,4.49,0,0,1,.13,4.9c-9.86,18-19.61,36.14-29.4,54.22C221.25,169.44,220.83,170,220.18,171Zm0-5.26c.71-1.15,1.3-2,1.78-2.9,8.62-15.9,17.17-31.82,25.86-47.67a5.33,5.33,0,0,0,0-5.86c-8.75-16-17.36-32-26-48-.43-.79-1-1.51-1.64-2.51-.7,1.19-1.27,2.08-1.77,3-8.55,15.79-17.06,31.61-25.7,47.36a5.62,5.62,0,0,0,0,6.18c8.64,15.74,17.14,31.56,25.7,47.35C218.91,163.65,219.48,164.54,220.21,165.76Z"/><path class="cls-3" d="M892.75,441.15c.78,1.34,1.33,2.24,1.83,3.17,9.51,17.56,19,35.14,28.56,52.65a5.33,5.33,0,0,1,0,5.85c-9.59,17.51-19,35.09-28.56,52.64-.5.93-1.06,1.82-1.79,3.07-.68-1-1.24-1.67-1.66-2.44q-14.5-26.8-29-53.6c-.92-1.69-1.2-3-.17-4.9,9.92-18.14,19.73-36.34,29.58-54.53C891.82,442.55,892.16,442.07,892.75,441.15Zm0,5.2c-.78,1.32-1.34,2.21-1.85,3.14-8.55,15.79-17,31.61-25.7,47.35a5.62,5.62,0,0,0,0,6.18c8.59,15.64,17,31.35,25.53,47,.56,1,1.17,2,1.95,3.38.73-1.19,1.32-2,1.81-3,8.6-15.89,17.16-31.82,25.85-47.66a5.33,5.33,0,0,0,0-5.86c-8.69-15.86-17.25-31.78-25.85-47.68C894,448.46,893.51,447.67,892.73,446.35Z"/><path class="cls-3" d="M556.46,828.74c.78,1.34,1.39,2.31,1.93,3.32q14.26,26.34,28.54,52.66c1,1.79,1.39,3.2.29,5.22-9.87,18-19.62,36.13-29.42,54.2-.33.61-.75,1.17-1.37,2.11-.74-1.27-1.35-2.24-1.89-3.25-9.46-17.45-18.86-34.92-28.4-52.32a5.6,5.6,0,0,1,0-6.17c9.54-17.41,18.94-34.88,28.39-52.33C555.06,831.14,555.66,830.14,556.46,828.74Zm0,5.25c-.78,1.32-1.29,2.12-1.74,3-8.6,15.9-17.16,31.82-25.85,47.67a5.33,5.33,0,0,0,0,5.87c8.69,15.84,17.25,31.77,25.86,47.67.49.9,1.07,1.75,1.78,2.9.73-1.22,1.3-2.11,1.81-3,8.55-15.79,17.05-31.62,25.7-47.35a5.65,5.65,0,0,0,0-6.19c-8.64-15.74-17.14-31.56-25.7-47.35C557.81,836.19,557.24,835.3,556.47,834Z"/><path class="cls-3" d="M724.59,655.38c-.85-1.42-1.47-2.39-2-3.4-9.4-17.36-18.74-34.74-28.22-52.05a5.65,5.65,0,0,1,0-6.19c9.49-17.3,18.83-34.68,28.22-52,.55-1,1.18-2,2-3.36.63.94,1.12,1.56,1.49,2.24q14.52,26.8,29.06,53.62c.92,1.68,1.23,3,.21,4.92q-14.88,27.23-29.59,54.55C725.49,654.08,725.2,654.46,724.59,655.38Zm0-5.24c.73-1.16,1.2-1.82,1.58-2.53,8.73-16.1,17.4-32.22,26.2-48.28a4.83,4.83,0,0,0-.14-5.24q-13.07-24-26-48c-.42-.77-1-1.47-1.66-2.46-.59.91-1,1.46-1.33,2.06-8.78,16.21-17.52,32.44-26.37,48.6a4.83,4.83,0,0,0,.14,5.24q13,23.81,25.84,47.67C723.27,648,723.78,648.83,724.58,650.14Z"/><path class="cls-3" d="M556.48,441.17c.71,1.18,1.23,2,1.68,2.78q14.42,26.66,28.84,53.3c.89,1.63,1.37,3,.31,4.9-10,18.24-19.85,36.55-29.76,54.83a17.31,17.31,0,0,1-1,1.43,18.88,18.88,0,0,1-1.44-2q-14.7-27.12-29.4-54.22a4.22,4.22,0,0,1,0-4.59q14.85-27.22,29.57-54.53C555.55,442.6,555.88,442.12,556.48,441.17Zm0,112.3c.78-1.31,1.35-2.2,1.85-3.13,8.56-15.79,17-31.62,25.7-47.36a5.64,5.64,0,0,0,0-6.18c-8.64-15.74-17.15-31.56-25.7-47.35-.5-.93-1.08-1.82-1.8-3-.7,1.15-1.29,2-1.78,2.91-8.61,15.89-17.16,31.82-25.86,47.67a5.33,5.33,0,0,0,0,5.86c8.69,15.85,17.25,31.77,25.85,47.68C555.18,551.36,555.69,552.16,556.47,553.47Z"/><path class="cls-3" d="M52.08,150.57c.79,1.29,1.3,2.07,1.74,2.88,9.57,17.67,19.1,35.35,28.74,53a5.06,5.06,0,0,1,0,5.56C72.94,229.52,63.48,247.1,54,264.66c-.49.91-1.07,1.77-1.82,3-.75-1.18-1.34-2-1.82-2.91-9.52-17.56-19-35.14-28.56-52.67-1.08-2-1.29-3.49-.15-5.56C31.32,188.79,40.9,171,50.53,153.23,50.92,152.51,51.36,151.81,52.08,150.57Zm0,111.87c.6-.86.91-1.21,1.13-1.62Q66.63,236,80.07,211.27A4,4,0,0,0,80,207q-13.38-24.6-26.68-49.24A12.69,12.69,0,0,0,52,156.08c-.66,1.09-1.17,1.88-1.62,2.71-8.55,15.79-17,31.6-25.69,47.34a5.65,5.65,0,0,0,.06,6.19c8.58,15.64,17,31.35,25.51,47C50.7,260.27,51.29,261.13,52.08,262.44Z"/><path class="cls-3" d="M388.37,150.62c.84,1.42,1.47,2.39,2,3.41,9.39,17.35,18.74,34.73,28.22,52a5.66,5.66,0,0,1,0,6.18c-9.49,17.32-18.83,34.7-28.22,52.05-.56,1-1.18,2-2,3.37-.64-.95-1.12-1.56-1.49-2.24q-14.54-26.82-29.06-53.62c-.92-1.68-1.23-3.05-.21-4.92,9.92-18.15,19.73-36.37,29.58-54.56C387.46,151.92,387.75,151.54,388.37,150.62Zm0,111.78c.56-.77.8-1,1-1.34,9-16.63,18-33.27,27-49.86a4,4,0,0,0-.14-4.28Q402.92,182.47,389.69,158a12.74,12.74,0,0,0-1.5-1.86c-.46.68-.75,1.06-1,1.47-8.9,16.42-17.73,32.86-26.71,49.23-1.12,2-.64,3.48.32,5.24q12.87,23.66,25.67,47.36C387,260.33,387.58,261.18,388.34,262.4Z"/><path class="cls-3" d="M724.54,267.7c-.73-1.24-1.24-2-1.68-2.84q-14.36-26.51-28.73-53a4.83,4.83,0,0,1-.08-5.24q14.61-26.76,29.08-53.61c.37-.69.84-1.33,1.48-2.31.75,1.2,1.33,2,1.82,2.95L755,206.35c.87,1.59,1.54,2.93.46,4.91-10,18.25-19.85,36.57-29.76,54.87A17.31,17.31,0,0,1,724.54,267.7ZM724.61,156c-.69,1.09-1.23,1.82-1.66,2.61-8.67,16-17.28,32-26,48-1.14,2.08-.91,3.61.15,5.56,8.62,15.75,17.13,31.56,25.69,47.35.48.9,1.07,1.74,1.83,3,.7-1.09,1.24-1.82,1.67-2.61,8.67-16,17.29-32,26-48,1.14-2.09.9-3.61-.17-5.56-8.61-15.76-17.12-31.57-25.68-47.35C726,158,725.37,157.17,724.61,156Z"/><path class="cls-3" d="M523.33,384.06c-1.58,0-2.61,0-3.64,0q-30-.8-59.89-1.58c-2.19-.05-3.69-.58-4.94-2.63-10.62-17.46-21.36-34.85-32.07-52.26-.35-.58-.62-1.22-1.12-2.18a22.67,22.67,0,0,1,2.28-.23c20.55.57,41.11,1.18,61.67,1.69a4.5,4.5,0,0,1,4.27,2.43q16,26.32,32.25,52.57C522.45,382.36,522.7,382.89,523.33,384.06Zm-4.78-2.91c-.53-1-.84-1.77-1.25-2.45C507.66,363,498,347.34,488.4,331.61a4.53,4.53,0,0,0-4.32-2.39c-18.3-.44-36.6-1-54.9-1.47-.89,0-1.78,0-3,0a14.06,14.06,0,0,0,.72,1.71q14.93,24.3,29.83,48.62a3.63,3.63,0,0,0,3.5,1.81l55.62,1.5A23.26,23.26,0,0,0,518.55,381.15Z"/><path class="cls-3" d="M859.57,771.67c-2.32,0-4.08,0-5.83,0-19-.52-38-1.11-57-1.49a6.51,6.51,0,0,1-6.18-3.64c-10.17-16.77-20.49-33.44-30.75-50.14-.61-1-1.13-2-1.9-3.37,1.18-.09,2-.21,2.73-.19,20.31.56,40.63,1.16,60.95,1.67,2.08.06,3.45.56,4.61,2.47q15.95,26.19,32.06,52.27C858.59,769.84,858.9,770.46,859.57,771.67Zm-97.45-56.19,31.78,51.71c8.7,1.14,57.62,2.14,60.73,1.21-.52-.95-1-1.89-1.53-2.77-9.33-15.19-18.72-30.34-28-45.59a5.92,5.92,0,0,0-5.67-3.23c-16.76-.34-33.51-.87-50.27-1.32C767.09,715.44,765,715.48,762.12,715.48Z"/><path class="cls-3" d="M85.21,93l10.6-17.27C103.4,63.38,111,51.05,118.56,38.66a4.87,4.87,0,0,1,4.49-2.75c20.56-.5,41.12-1.08,61.67-1.63.59,0,1.17.06,2.12.11A28,28,0,0,1,185.6,37q-15.94,26-31.88,52a4.82,4.82,0,0,1-4.56,2.55c-20.32.51-40.64,1.12-61,1.68C87.42,93.21,86.63,93.09,85.21,93Zm97.18-55.9c-1.33-.07-2-.16-2.74-.14-18.54.5-37.08,1-55.61,1.47a4.2,4.2,0,0,0-3.91,2.41Q105.73,64.42,91.24,88A27.31,27.31,0,0,0,90,90.61c1,0,1.61,0,2.2,0,18.65-.51,37.31-1,56-1.47,2.12,0,3.15-1,4.15-2.67Q166.52,63.2,180.84,40C181.32,39.21,181.71,38.38,182.39,37.1Z"/><path class="cls-3" d="M253.41,34.31c1.64,0,2.78,0,3.92,0,19.73.53,39.45,1.11,59.18,1.56a5.94,5.94,0,0,1,5.69,3.22c10.34,17.07,20.85,34,31.3,51.06.49.78.91,1.61,1.55,2.76a21.2,21.2,0,0,1-2.59.28c-20.31-.57-40.63-1.19-60.95-1.68a5.08,5.08,0,0,1-4.86-2.69C276.16,71.56,265.54,54.37,255,37.16,254.49,36.39,254.09,35.57,253.41,34.31Zm4.76,2.88c.52,1,.82,1.77,1.23,2.44C269,55.33,278.73,71,288.3,86.73a4.54,4.54,0,0,0,4.31,2.4q27.63.68,55.26,1.47c.77,0,1.54,0,2.66,0a15,15,0,0,0-.71-1.68Q334.91,64.6,320,40.29a3.65,3.65,0,0,0-3.49-1.83C298,38,279.43,37.46,260.89,37,260.11,37,259.33,37.09,258.17,37.19Z"/><path class="cls-3" d="M691.27,93.07c-1.08.07-1.66.15-2.24.14-20.56-.58-41.11-1.2-61.67-1.72a4.51,4.51,0,0,1-4.28-2.4Q606.92,62.6,590.63,36.22c-.24-.4-.43-.84-.79-1.57a13.79,13.79,0,0,1,2.34-.36l61.32,1.64c1.87,0,3.27.44,4.39,2.28q16.23,26.64,32.63,53.17C690.75,91.76,690.88,92.2,691.27,93.07Zm-4.15-2.48c-10.93-17.79-21.44-34.88-31.86-51.82-11.38-1.29-57.78-2.15-60.63-1.11a13,13,0,0,0,.58,1.25c9.83,16,19.7,32,29.45,48,1.13,1.87,2.56,2.15,4.42,2.2q27.09.7,54.19,1.47C684.3,90.61,685.34,90.59,687.12,90.59Z"/><path class="cls-3" d="M589.57,383.9c4.55-7.43,8.77-14.31,13-21.19q10.17-16.54,20.34-33.11c1-1.57,1.86-2.7,4.08-2.75,20.79-.48,41.59-1.11,62.38-1.68a15.45,15.45,0,0,1,1.72.14,17.12,17.12,0,0,1-.94,2.27q-16,26.12-32.08,52.25a4.58,4.58,0,0,1-4.21,2.62c-20.67.49-41.34,1.08-62,1.63C591.28,384.09,590.72,384,589.57,383.9Zm97.26-56c-.87-.09-1.22-.17-1.57-.17-19,.51-38,1.05-57,1.5a4,4,0,0,0-3.61,2.34Q610.09,355.28,595.5,379a16,16,0,0,0-.94,2.41c1.33,0,2.27,0,3.21,0,18.18-.5,36.36-1,54.55-1.44a4.81,4.81,0,0,0,4.46-2.72Q671,353.94,685.3,330.73C685.79,329.94,686.19,329.11,686.83,327.91Z"/><path class="cls-3" d="M757.92,868.3c.53-1,.83-1.76,1.24-2.42q16-26,31.89-52a4.92,4.92,0,0,1,4.51-2.74c20.56-.49,41.11-1.07,61.67-1.63.58,0,1.16.07,2.06.12a21.51,21.51,0,0,1-1,2.3c-10.69,17.43-21.43,34.82-32.06,52.27a4.81,4.81,0,0,1-4.58,2.53c-20.32.51-40.63,1.12-61,1.69C759.89,868.5,759.1,868.37,757.92,868.3Zm4.25-2.58c1.14.1,1.59.19,2.05.18,18.89-.51,37.78-1,56.68-1.49,2,0,2.91-1.07,3.83-2.58q14.34-23.42,28.74-46.78a31.05,31.05,0,0,0,1.36-2.92L794.1,813.8C783.49,831,773,848.13,762.17,865.72Z"/><path class="cls-3" d="M757.92,325.37a23.75,23.75,0,0,1,2.39-.19c20.55.56,41.11,1.17,61.67,1.69a4.21,4.21,0,0,1,4,2.22q16.15,26.46,32.45,52.86c.3.49.53,1,1,1.89-1.15.09-2,.24-2.9.22-20.2-.53-40.4-1.11-60.6-1.59a5.13,5.13,0,0,1-4.88-2.73c-10.49-17.26-21.11-34.45-31.68-51.66C758.9,327.31,758.51,326.49,757.92,325.37Zm96.79,55.81a25.65,25.65,0,0,0-1.12-2.4c-9.64-15.7-19.34-31.36-28.9-47.1-1.18-1.95-2.59-2.41-4.64-2.46-17.94-.44-35.89-1-53.83-1.44-1.14,0-2.28,0-3.84,0,.42.92.61,1.45.89,1.92q14.84,24.15,29.66,48.31a3.61,3.61,0,0,0,3.46,1.89q28,.72,56,1.51A20.91,20.91,0,0,0,854.71,381.18Z"/><path class="cls-3" d="M859.49,422.05c-.73,1.32-1.2,2.25-1.74,3.13q-15.68,25.51-31.31,51.05a5.36,5.36,0,0,1-5.09,2.93c-20.2.47-40.39,1.1-60.59,1.66-.8,0-1.6-.07-2.78-.13.47-1,.74-1.72,1.14-2.38q15.95-26,31.89-51.95c1.09-1.77,2.25-2.76,4.46-2.81,20.68-.49,41.35-1.08,62-1.63C858,421.91,858.44,422,859.49,422.05Zm-65.4,4.1c-10.61,17.26-21.15,34.41-31.92,52,1.21.08,1.77.17,2.33.15,18.78-.5,37.55-1,56.33-1.49,2,0,2.93-1,3.87-2.51q14.41-23.56,28.92-47.09a26.32,26.32,0,0,0,1.18-2.67Z"/><path class="cls-3" d="M691.28,480.65c-1.17.08-2,.2-2.74.18q-30.48-.85-60.95-1.71c-1.87-.05-3.27-.33-4.41-2.19Q607,450.28,590.56,423.75c-.23-.39-.38-.83-.73-1.59a26.27,26.27,0,0,1,2.84-.22c20.2.53,40.4,1.11,60.6,1.6a5.13,5.13,0,0,1,4.88,2.72c10.56,17.36,21.24,34.65,31.88,52C690.44,478.89,690.75,479.62,691.28,480.65Zm-4.63-2.48a7.88,7.88,0,0,0-.45-1.37q-15-24.46-30-48.93c-.89-1.47-2-1.72-3.54-1.76q-27.81-.74-55.6-1.5a23.42,23.42,0,0,0-2.69.26c.76,1.37,1.28,2.41,1.88,3.39,9.26,15.09,18.59,30.14,27.76,45.28a5.92,5.92,0,0,0,5.64,3.29c17,.34,34,.88,51,1.34C682.52,478.22,684.42,478.17,686.65,478.17Z"/><path class="cls-3" d="M355.12,480.83c-8.83-.2-17-.35-25.21-.58-12.83-.36-25.66-.8-38.49-1.11-2.07-.05-3.45-.54-4.62-2.46-10.69-17.56-21.49-35.05-32.25-52.56-.31-.5-.55-1-1-1.87a18.24,18.24,0,0,1,2.44-.32q30.66.81,61.31,1.63a4.61,4.61,0,0,1,4.37,2.34c10.75,17.66,21.62,35.25,32.44,52.87C354.41,479.25,354.61,479.78,355.12,480.83Zm-4.61-2.6a12.35,12.35,0,0,0-.68-1.65Q334.92,452.27,320,428a3.66,3.66,0,0,0-3.49-1.86q-27.79-.71-55.61-1.49c-.78,0-1.56.12-2.71.22.49,1,.78,1.76,1.19,2.42,9.64,15.7,19.34,31.36,28.89,47.11,1.2,2,2.65,2.36,4.67,2.41q26.91.69,53.83,1.45C347.92,478.26,349.05,478.23,350.51,478.23Z"/><path class="cls-3" d="M589.76,809.58c1.45,0,2.39,0,3.34,0,20,.53,39.92,1.12,59.88,1.57a5.72,5.72,0,0,1,5.39,3.11c10.43,17.16,21,34.25,31.5,51.36.43.7.82,1.43,1.41,2.46a14.43,14.43,0,0,1-2.45.39c-20.55-.57-41.11-1.18-61.67-1.72a4,4,0,0,1-3.81-2Q607,838,590.53,811.33A17.57,17.57,0,0,1,589.76,809.58Zm97,56.23c-.41-.9-.56-1.34-.8-1.73q-14.84-24.15-29.64-48.31a3.92,3.92,0,0,0-3.75-2c-18.42-.46-36.84-1-55.26-1.47a25.66,25.66,0,0,0-3,.27c.78,1.4,1.31,2.43,1.91,3.41,9.27,15.09,18.6,30.14,27.77,45.29a5.92,5.92,0,0,0,5.67,3.23c16.87.35,33.75.88,50.62,1.34C682.33,865.86,684.33,865.81,686.8,865.81Z"/><path class="cls-3" d="M355.27,325.36,340.74,349c-6.28,10.23-12.61,20.43-18.82,30.69a4.86,4.86,0,0,1-4.49,2.77c-20.56.48-41.11,1.07-61.67,1.62-.59,0-1.18-.06-2.13-.11.47-1,.78-1.83,1.24-2.58q15.94-26,31.88-52a4.51,4.51,0,0,1,4.19-2.58c20.55-.49,41.11-1.11,61.67-1.68C353.28,325.16,354,325.26,355.27,325.36Zm-36.42,54.48c10.64-17.3,21.23-34.41,31.9-51.92-1.09-.1-1.54-.19-2-.18-18.9.51-37.79,1.05-56.68,1.49-2,0-2.92,1.06-3.85,2.57q-14.33,23.42-28.74,46.78a31.59,31.59,0,0,0-1.37,2.94Z"/><path class="cls-3" d="M421.44,868.3l8-13q12.7-20.65,25.37-41.32a4.89,4.89,0,0,1,4.48-2.78c20.67-.49,41.35-1.07,62-1.63.47,0,.94.07,1.78.13a25.88,25.88,0,0,1-1.21,2.56q-15.94,26-31.88,52a4.8,4.8,0,0,1-4.55,2.57c-20.32.51-40.63,1.12-60.95,1.69C423.69,868.49,422.89,868.39,421.44,868.3Zm4.51-2.6c1.1.11,1.55.21,2,.2,18.89-.51,37.78-1,56.68-1.49,2,0,2.92-1,3.85-2.55q14.32-23.42,28.72-46.78a30.86,30.86,0,0,0,1.4-3l-60.75,1.67Z"/><path class="cls-3" d="M691.45,713.06c-1.26,2.08-2.23,3.69-3.22,5.3q-15,24.45-30,48.91c-1.08,1.77-2.21,2.78-4.44,2.83-20.68.48-41.36,1.07-62,1.62-.47,0-.94-.05-1.75-.1a15.18,15.18,0,0,1,.92-2.22q16.13-26.28,32.27-52.56a3.93,3.93,0,0,1,3.59-2.32c20.92-.52,41.83-1.14,62.74-1.71A17.73,17.73,0,0,1,691.45,713.06Zm-4.4,2.47c-1.23-.08-1.79-.16-2.36-.14-18.77.5-37.55,1-56.32,1.49-2,0-2.93,1-3.87,2.51Q610.09,743,595.58,766.48a23.84,23.84,0,0,0-1.17,2.68l60.7-1.67Z"/><path class="cls-3" d="M220.27,247.37c.76,1.3,1.37,2.28,1.91,3.28,9.46,17.46,18.86,34.93,28.4,52.33a5.62,5.62,0,0,1,0,6.17c-9.54,17.4-18.94,34.88-28.39,52.33-.56,1-1.17,2-2,3.42-.78-1.34-1.39-2.32-1.94-3.33-9.5-17.56-19-35.13-28.55-52.65a5,5,0,0,1-.08-5.54c9.7-17.71,19.27-35.51,28.89-53.27C219,249.29,219.55,248.52,220.27,247.37Zm0,5.32c-.53.8-1,1.36-1.3,2-8.9,16.42-17.76,32.86-26.71,49.24a4.22,4.22,0,0,0,.13,4.6q13.32,24.44,26.53,48.92a21.15,21.15,0,0,0,1.45,2c.49-.78.83-1.26,1.11-1.77,8.89-16.42,17.75-32.86,26.72-49.24a4.5,4.5,0,0,0-.15-4.91c-8.77-16.08-17.45-32.21-26.17-48.31C221.41,254.41,220.86,253.66,220.24,252.69Z"/><path class="cls-3" d="M421.45,93c4-6.54,7.67-12.51,11.34-18.47,7.34-12,14.72-23.87,22-35.86a4.87,4.87,0,0,1,4.49-2.76c20.67-.5,41.35-1.08,62-1.63.47,0,.94.06,1.77.13A24.69,24.69,0,0,1,521.85,37q-15.93,26-31.89,52a4.51,4.51,0,0,1-4.18,2.58c-20.56.49-41.11,1.12-61.67,1.69C423.44,93.21,422.77,93.1,421.45,93Zm36.4-54.49c-10.59,17.24-21.14,34.39-32,52.09,1.53,0,2.32,0,3.11,0,18.41-.5,36.83-1,55.25-1.47a4.51,4.51,0,0,0,4.26-2.48c9.59-15.73,19.27-31.4,28.9-47.1a27.52,27.52,0,0,0,1.24-2.7Z"/><path class="cls-3" d="M757.71,93c3.11-5.09,5.9-9.64,8.69-14.18Q778.73,58.76,791,38.71c1.09-1.79,2.26-2.75,4.47-2.8,20.68-.49,41.35-1.08,62-1.63.47,0,.94.06,1.8.11a24.69,24.69,0,0,1-1.2,2.55q-15.95,26-31.89,52c-1,1.64-2,2.56-4.17,2.61-20.67.5-41.35,1.13-62,1.71C759.47,93.22,758.91,93.11,757.71,93ZM854.79,37.2a24.84,24.84,0,0,0-2.71-.23c-18.54.49-37.08,1-55.61,1.48a3.94,3.94,0,0,0-3.69,2.14c-9.72,15.92-19.52,31.8-29.27,47.71a16.22,16.22,0,0,0-.93,2.31c1.08,0,1.79,0,2.5,0,18.42-.49,36.83-1,55.26-1.46a4.85,4.85,0,0,0,4.49-2.71Q839,63.14,853.36,39.94C853.83,39.17,854.2,38.33,854.79,37.2Z"/><path class="cls-3" d="M253.45,228.05l66.82,1.84,35,56.93c-1.52.08-2.41.19-3.3.16q-30.3-.8-60.61-1.6c-1.88-.05-3.28-.41-4.4-2.25q-16.32-26.81-32.81-53.49C254,229.35,253.87,229,253.45,228.05Zm4.75,3a14.38,14.38,0,0,0,.75,1.61q14.73,24,29.46,48a4.25,4.25,0,0,0,4.08,2.13c18.3.45,36.6,1,54.91,1.47.9,0,1.8-.1,3.08-.17-.65-1.23-1.09-2.17-1.63-3-9.33-15.2-18.74-30.35-28-45.61a6.22,6.22,0,0,0-5.95-3.4c-14.39-.24-28.77-.69-43.15-1C267.4,231,263,231.07,258.2,231.07Z"/><path class="cls-3" d="M187.12,228.25c-.73,1.23-1.18,2-1.66,2.81q-15.78,25.66-31.53,51.35c-1.14,1.88-2.32,2.95-4.71,3-20.32.45-40.64,1-61,1.57-.79,0-1.58-.07-2.79-.13.63-1.22,1-2.16,1.57-3q15.76-25.68,31.53-51.35c1-1.58,1.87-2.67,4.1-2.72,20.8-.47,41.59-1.1,62.39-1.67C185.52,228.09,186,228.17,187.12,228.25ZM89.79,284.32c1.55,0,2.48,0,3.41,0,18.18-.5,36.37-1.05,54.55-1.44a5.07,5.07,0,0,0,4.76-2.87c9.34-15.33,18.77-30.61,28.16-45.9.59-1,1.09-2,1.85-3.42-1.43,0-2.35,0-3.27,0-18.19.5-36.37,1-54.56,1.44a5.13,5.13,0,0,0-4.78,2.89c-9.46,15.53-19,31-28.54,46.5C91,282.21,90.57,282.93,89.79,284.32Z"/><path class="cls-3" d="M859.6,190.24c-8.26-.18-15.86-.3-23.45-.51-13.54-.38-27.09-.84-40.64-1.16a4.52,4.52,0,0,1-4.29-2.38c-10.64-17.45-21.38-34.85-32.07-52.26-.41-.67-.68-1.41-1.22-2.55,1.59,0,2.74,0,3.88,0q29.76.8,59.53,1.56a5.12,5.12,0,0,1,4.9,2.68c10.61,17.47,21.36,34.86,32.06,52.27C858.66,188.48,859,189.09,859.6,190.24Zm-4.7-2.57a17.59,17.59,0,0,0-.74-1.76q-14.83-24.16-29.66-48.34a4,4,0,0,0-3.75-2.06c-18.66-.46-37.32-1-56-1.5a19.6,19.6,0,0,0-2.36.26c.59,1,1,1.75,1.38,2.42,9.58,15.61,19.2,31.18,28.7,46.83a5.13,5.13,0,0,0,4.9,2.7c18.07.42,36.13.95,54.2,1.44C852.52,187.69,853.47,187.67,854.9,187.67Z"/><path class="cls-3" d="M523.31,578l-66.88-1.86L421.36,519c2,0,3.25,0,4.5,0L485,520.62c2,0,3.51.26,4.75,2.3,10.79,17.77,21.73,35.46,32.62,53.17C522.65,576.48,522.81,576.92,523.31,578Zm-97-55.86c.44.8.74,1.41,1.1,2,9.64,15.71,19.32,31.39,28.9,47.13a4.89,4.89,0,0,0,4.57,2.63c18.3.44,36.61,1,54.91,1.46.88,0,1.76-.12,2.9-.21-.45-.88-.67-1.42-1-1.91-9.76-15.9-19.57-31.78-29.27-47.74a4.51,4.51,0,0,0-4.34-2.3c-11.88-.3-23.77-.77-35.66-1C441.19,522,433.94,522.1,426.28,522.1Z"/><path class="cls-3" d="M589.56,577.72,605,552.6c6-9.82,12.11-19.63,18.1-29.47a4.29,4.29,0,0,1,3.89-2.51c20.91-.49,41.83-1.07,62.74-1.61a11,11,0,0,1,1.39.2,23.87,23.87,0,0,1-1.16,2.52q-15.94,26-31.89,52a4.53,4.53,0,0,1-4.21,2.53c-20.56.49-41.11,1.11-61.67,1.68C591.5,577.92,590.82,577.81,589.56,577.72Zm4.68-2.41c1.46,0,2.48,0,3.5,0,18.06-.5,36.13-1,54.2-1.45a5.13,5.13,0,0,0,4.83-2.8c9.39-15.44,18.9-30.81,28.35-46.21.54-.87,1-1.81,1.6-3-1.29-.07-2.2-.18-3.12-.15-18.3.49-36.6,1-54.91,1.46a4.48,4.48,0,0,0-4.24,2.48c-9.53,15.63-19.15,31.21-28.72,46.82C595.25,573.21,594.88,574.05,594.24,575.31Z"/><path class="cls-3" d="M859.45,577.7a23.07,23.07,0,0,1-2.36.2q-30.84-.85-61.67-1.7a4.22,4.22,0,0,1-4-2.15q-16.25-26.64-32.63-53.17c-.24-.39-.38-.84-.72-1.58a18.16,18.16,0,0,1,2.46-.29q30.66.79,61.32,1.61a4.31,4.31,0,0,1,4.11,2.14q16.33,26.78,32.82,53.47C859,576.6,859.11,577,859.45,577.7Zm-97.05-56c.48,1,.63,1.48.87,1.86,9.83,16,19.7,32,29.46,48,1.12,1.83,2.51,2.22,4.4,2.27q27.47.7,54.92,1.48a25.68,25.68,0,0,0,2.85-.26c-.45-.87-.68-1.41-1-1.9-9.76-15.9-19.57-31.79-29.26-47.73-1.12-1.84-2.46-2.22-4.37-2.27q-27.27-.67-54.56-1.47C764.78,521.65,763.84,521.67,762.4,521.67Z"/><path class="cls-3" d="M253.44,965.35c.64-1.13,1.06-1.94,1.54-2.71Q270.75,937,286.5,911.29a5.42,5.42,0,0,1,5-3.08c20-.43,39.93-1,59.89-1.54,1,0,2.08,0,3.56,0-.55,1.18-.86,2-1.32,2.79-10.57,17.22-21.18,34.41-31.69,51.66a5,5,0,0,1-4.81,2.76c-20.32.48-40.63,1.1-61,1.66C255.42,965.55,254.64,965.43,253.44,965.35Zm97.22-55.87c-1.39-.08-2.21-.19-3-.16-18.43.49-36.85,1-55.28,1.46a4.49,4.49,0,0,0-4.2,2.55q-14.31,23.43-28.72,46.81c-.48.77-.82,1.62-1.35,2.7,1,.06,1.72.14,2.4.13,18.54-.5,37.08-1.06,55.63-1.47,2.28,0,3.36-1.13,4.42-2.87,9-14.71,18-29.38,27.06-44.07C348.53,913.06,349.42,911.54,350.66,909.48Z"/><path class="cls-3" d="M523.2,965.36c-1,.08-1.7.2-2.37.18q-30.84-.85-61.67-1.7a4.2,4.2,0,0,1-4-2.16Q439,935.21,422.66,908.82c-.3-.49-.51-1-.93-1.89a19.27,19.27,0,0,1,2.52-.27q30.66.78,61.32,1.61a4.28,4.28,0,0,1,4.1,2.14c10.89,17.85,21.88,35.66,32.82,53.48A15,15,0,0,1,523.2,965.36Zm-97-55.82c.49.91.77,1.53,1.12,2.11,9.71,15.8,19.45,31.58,29.09,47.42a4.57,4.57,0,0,0,4.33,2.41c18.54.46,37.08,1,55.63,1.49a20.75,20.75,0,0,0,2.08-.16,5.72,5.72,0,0,0-.34-1.27q-15-24.46-30-48.95a3.67,3.67,0,0,0-3.55-1.77q-27.82-.72-55.63-1.51A25.2,25.2,0,0,0,426.2,909.54Z"/><path class="cls-3" d="M523.3,422.06c-.86,1.48-1.41,2.51-2,3.5C511,442.37,500.57,459.14,490.36,476c-1.43,2.37-3,3.1-5.69,3.16-20,.46-39.92,1.08-59.88,1.64-.9,0-1.81-.08-3.13-.14.67-1.24,1.11-2.16,1.64-3q15.76-25.67,31.51-51.35a4.88,4.88,0,0,1,4.5-2.74c20.56-.49,41.11-1.08,61.66-1.63C521.55,421.91,522.13,422,523.3,422.06Zm-4.79,2.8a14.11,14.11,0,0,0-2-.26c-18.89.5-37.78,1-56.68,1.49-1.74,0-2.51.9-3.3,2.17q-14.62,23.87-29.29,47.7a16.1,16.1,0,0,0-.9,2.29c1.09,0,1.8,0,2.51,0,18.42-.5,36.83-1,55.25-1.46a4.81,4.81,0,0,0,4.48-2.74q14.21-23.28,28.54-46.49C517.6,426.79,518,426,518.51,424.86Z"/><path class="cls-3" d="M757.92,906.67c1.6,0,2.74,0,3.88,0q29.78.8,59.54,1.59c2,0,3.49.32,4.72,2.34,10.79,17.78,21.73,35.47,32.62,53.19.23.38.38.81.72,1.53a24.77,24.77,0,0,1-2.57.22c-20.31-.57-40.63-1.17-61-1.69-2-.05-3.48-.42-4.66-2.36-10.63-17.46-21.37-34.85-32.07-52.27C758.74,908.56,758.47,907.81,757.92,906.67Zm4.5,2.66c.45,1,.6,1.44.83,1.82,9.84,16,19.71,32,29.47,48,1.11,1.82,2.48,2.25,4.39,2.3,18.3.46,36.61,1,54.92,1.47.87,0,1.74-.14,2.87-.23-.45-.88-.68-1.42-1-1.91-9.76-15.9-19.57-31.78-29.26-47.73-1.11-1.82-2.43-2.24-4.36-2.29-18.07-.44-36.13-1-54.2-1.45C765,909.31,764,909.33,762.42,909.33Z"/><path class="cls-3" d="M421.74,131.47c3.07,0,5.68-.06,8.29,0,18.18.48,36.35,1.05,54.54,1.43a6.26,6.26,0,0,1,5.9,3.48c10.36,17.07,20.87,34,31.32,51.05.43.7.82,1.43,1.41,2.45a14.4,14.4,0,0,1-2.44.36q-30.83-.84-61.67-1.7c-1.64-.05-2.85-.33-3.82-1.92q-16.33-26.77-32.81-53.47A13.91,13.91,0,0,1,421.74,131.47Zm4.41,2.57c.49,1.05.66,1.5.89,1.88q14.76,24,29.49,48a4.29,4.29,0,0,0,4,2.25c18.55.46,37.09,1,55.64,1.48a15.53,15.53,0,0,0,2.39-.31c-.36-.75-.52-1.19-.76-1.58-9.83-16-19.71-32-29.46-48-1.12-1.85-2.49-2.18-4.38-2.23q-27.11-.69-54.21-1.47C428.75,134,427.7,134,426.15,134Z"/><path class="cls-3" d="M253.33,190.26c.79-1.38,1.22-2.2,1.7-3,10.45-17,21-34,31.31-51.05a6,6,0,0,1,5.64-3.32c19.61-.41,39.21-1,58.82-1.52,1.26,0,2.53,0,4.27,0-.7,1.35-1.12,2.28-1.65,3.15-10.44,17-20.93,34-31.32,51a5.35,5.35,0,0,1-5,3c-20.32.45-40.64,1.08-61,1.65C255.42,190.27,254.72,190.26,253.33,190.26Zm4.58-2.57c1.24,0,1.83,0,2.42,0,18.55-.5,37.09-1,55.63-1.47a4.89,4.89,0,0,0,4.51-2.72q14.11-23.15,28.36-46.21c.55-.87,1-1.79,1.76-3.09-1.47-.06-2.48-.17-3.49-.15-18.19.49-36.38,1-54.56,1.45a4.81,4.81,0,0,0-4.48,2.71c-9.4,15.43-18.89,30.81-28.34,46.21C259.17,185.29,258.71,186.23,257.91,187.69Z"/><path class="cls-3" d="M187.12,190.25c-8.39-.19-16.1-.32-23.81-.53-13.43-.37-26.85-.83-40.28-1.15a4.51,4.51,0,0,1-4.29-2.38q-16-26.17-32.08-52.26c-.41-.67-.68-1.42-1.22-2.55,1.6,0,2.74,0,3.88,0q29.78.8,59.54,1.56a5.11,5.11,0,0,1,4.89,2.68c10.61,17.47,21.36,34.86,32.06,52.27C186.17,188.48,186.47,189.09,187.12,190.25ZM89.9,134c.5,1.05.66,1.49.9,1.88q14.74,24,29.48,48a4.3,4.3,0,0,0,4,2.25c18.54.46,37.09,1,55.63,1.48a17,17,0,0,0,2.4-.3c-.36-.75-.52-1.19-.77-1.59-9.83-16-19.7-32-29.45-48-1.12-1.86-2.49-2.18-4.38-2.23q-27.1-.69-54.21-1.46C92.5,134,91.45,134,89.9,134Z"/><path class="cls-3" d="M859.63,615.93c-6.71,11-13.11,21.37-19.51,31.79-4.54,7.4-9.16,14.74-13.6,22.2a5.61,5.61,0,0,1-5.35,3.15c-11.42.18-22.82.55-34.23.85l-25,.69c-1.17,0-2.35,0-4.06,0,.61-1.21,1-2.14,1.52-3q15.85-25.83,31.7-51.66a4.51,4.51,0,0,1,4.21-2.54c20.56-.48,41.11-1.09,61.67-1.66C857.71,615.74,858.39,615.84,859.63,615.93Zm-4.58,2.38h-2.42c-18.54.51-37.08,1.05-55.62,1.48a4.87,4.87,0,0,0-4.52,2.71c-9.52,15.63-19.14,31.21-28.72,46.81-.42.68-.78,1.38-1.39,2.49,1.45.07,2.47.18,3.47.16,18.07-.49,36.14-1.05,54.2-1.42a5.35,5.35,0,0,0,5-3q13.93-22.83,28-45.59C853.67,620.93,854.18,619.89,855.05,618.31Z"/><path class="cls-3" d="M187.08,384.05c-1.63,0-2.77,0-3.9,0q-29.77-.81-59.53-1.59c-2.14,0-3.72-.45-5-2.54C108,362.35,97.18,344.87,86.42,327.35c-.31-.49-.54-1-1-1.89a24.25,24.25,0,0,1,2.89-.26c20.2.55,40.4,1.16,60.59,1.65a5,5,0,0,1,4.88,2.66c10.43,17.16,21,34.25,31.5,51.36C185.84,381.74,186.31,382.67,187.08,384.05ZM89.63,327.84l31.8,51.72c9.26,1.17,57.66,2.14,60.71,1.17-.53-.94-1-1.87-1.54-2.76-9.33-15.19-18.72-30.34-27.94-45.59a5.94,5.94,0,0,0-5.69-3.21c-16.75-.34-33.51-.87-50.26-1.32C94.59,327.79,92.48,327.84,89.63,327.84Z"/><path class="cls-3" d="M691.21,906.79c-.54,1.12-.88,2-1.35,2.73q-15.86,25.83-31.7,51.65a4.79,4.79,0,0,1-4.48,2.69c-20.56.5-41.11,1.12-61.67,1.69-.58,0-1.16,0-2.11-.09a18.66,18.66,0,0,1,1-2.27q16-26.13,32.08-52.26c1-1.64,2-2.63,4.15-2.68,20.56-.48,41.12-1.06,61.68-1.6C689.49,906.63,690.17,906.73,691.21,906.79Zm-97,56.16c1.46,0,2.48,0,3.51,0,18.06-.5,36.13-1,54.2-1.44a5.14,5.14,0,0,0,4.83-2.81c9.39-15.44,18.9-30.81,28.35-46.21.54-.87,1-1.8,1.6-3-1.29-.06-2.2-.17-3.12-.15-18.3.5-36.61,1-54.91,1.46a4.49,4.49,0,0,0-4.24,2.48c-9.53,15.64-19.15,31.22-28.73,46.82C595.25,960.86,594.88,961.7,594.23,963Z"/><path class="cls-3" d="M757.94,286.84c.65-1.24,1.08-2.17,1.61-3q15.76-25.68,31.52-51.35c1-1.59,1.93-2.63,4.13-2.68,20.8-.47,41.59-1.09,62.39-1.67.46,0,.92.08,1.73.14a20.81,20.81,0,0,1-1,2.23q-16,26.15-32.08,52.27c-1,1.67-2.09,2.6-4.17,2.65-20.56.48-41.12,1.06-61.68,1.61C759.69,287,759,286.91,757.94,286.84Zm4.44-2.7a16.11,16.11,0,0,0,2,.21c18.9-.51,37.8-1.06,56.69-1.51a4,4,0,0,0,3.6-2.33q14.52-23.72,29.11-47.41a18.81,18.81,0,0,0,1-2.38c-1.74,0-3.16,0-4.57,0-17.47.47-35,1-52.42,1.37a5.94,5.94,0,0,0-5.65,3.3c-9.24,15.25-18.63,30.41-28,45.6C763.62,281.88,763.14,282.8,762.38,284.14Z"/><path class="cls-3" d="M85.11,906.67c1.88,0,3,0,4.16,0q29.76.8,59.53,1.59c1.95,0,3.5.25,4.75,2.3,10.79,17.78,21.73,35.46,32.62,53.18.23.39.39.82.85,1.77-22.5-.43-44.63-1.13-66.86-1.81Zm97.3,56.26a17.25,17.25,0,0,0-.75-1.75Q166.84,937,152,912.85a4,4,0,0,0-3.76-2.05c-18.54-.46-37.08-1-55.63-1.49a25.91,25.91,0,0,0-2.7.25c.59,1,1,1.75,1.38,2.43,9.58,15.6,19.2,31.18,28.7,46.83a5.17,5.17,0,0,0,4.9,2.69c17.71.41,35.43.93,53.14,1.41C179.34,963,180.64,962.93,182.41,962.93Z"/><path class="cls-3" d="M892.66,752.44c-.76-1.3-1.31-2.21-1.81-3.14-9.51-17.56-19-35.13-28.56-52.64a5.33,5.33,0,0,1,0-5.85c9.64-17.62,19.15-35.31,28.72-53,.44-.82,1-1.6,1.63-2.72.67,1,1.23,1.68,1.65,2.45q14.52,26.8,29,53.61c.84,1.54,1.3,2.8.33,4.58q-15,27.54-29.91,55.16C893.51,751.33,893.19,751.68,892.66,752.44Zm.07-112.06a11.77,11.77,0,0,0-1,1.33c-9.07,16.73-18.1,33.49-27.22,50.18-.92,1.69-.41,2.87.35,4.27q13.27,24.47,26.52,48.94a19,19,0,0,0,1.41,1.95c.46-.67.75-1,1-1.45q13.43-24.78,26.88-49.56a4.22,4.22,0,0,0,0-4.59q-13.24-24.29-26.36-48.62C893.88,642,893.33,641.3,892.73,640.38Z"/><path class="cls-3" d="M589.67,190.12c.56-1,.87-1.63,1.22-2.2q16.05-26.13,32.08-52.26a4.84,4.84,0,0,1,4.51-2.7c20.32-.49,40.64-1.06,61-1.59.8,0,1.59.06,2.76.12-.53,1.11-.86,2-1.33,2.72Q674,160,658.15,185.85c-1,1.57-1.86,2.69-4.09,2.74-20.8.46-41.58,1.1-62.38,1.68C591.21,190.28,590.75,190.2,589.67,190.12Zm4.5-2.43c1.25,0,1.84,0,2.43,0,18.54-.5,37.08-1,55.63-1.47a4.88,4.88,0,0,0,4.5-2.74q14.21-23.29,28.54-46.51c.48-.78.88-1.6,1.5-2.73-1.3-.09-2.2-.22-3.1-.19-18.31.49-36.61,1-54.92,1.44a4.79,4.79,0,0,0-4.45,2.75q-14.12,23.13-28.35,46.2C595.41,185.32,595,186.25,594.17,187.69Z"/><path class="cls-3" d="M589.78,228.29a19.59,19.59,0,0,1,2-.18q31.2.85,62.39,1.71a3.65,3.65,0,0,1,3.46,1.89q16.38,26.76,32.82,53.48a14,14,0,0,1,.71,1.6c-1.25.07-2.25.21-3.25.18q-30.13-.78-60.25-1.59c-1.86-.05-3.31-.33-4.44-2.19q-16.41-27-33-53.79C590.14,229.2,590.07,229,589.78,228.29Zm96.91,55.83c-.61-1.17-1-2.12-1.58-3-9.4-15.3-18.85-30.56-28.16-45.9a5.71,5.71,0,0,0-5.39-3.11c-17.82-.4-35.65-.93-53.48-1.41-1.13,0-2.27,0-3.7,0a10.19,10.19,0,0,0,.61,1.66q14.93,24.31,29.84,48.64a3.68,3.68,0,0,0,3.52,1.83q28,.72,56,1.52C685,284.36,685.67,284.22,686.69,284.12Z"/><path class="cls-3" d="M421.62,286.87c.81-1.48,1.32-2.51,1.93-3.49,10.39-16.92,20.82-33.8,31.13-50.76a5.34,5.34,0,0,1,5.12-2.85c20.09-.47,40.16-1.07,60.24-1.62.93,0,1.85,0,3.26,0-.59,1.08-.92,1.78-1.32,2.44q-16,26-31.9,52c-1.07,1.75-2.18,2.8-4.43,2.85-20.55.47-41.11,1.05-61.67,1.6C423.39,287,422.8,286.94,421.62,286.87Zm97.16-56.07c-1.13-.07-1.7-.14-2.28-.13-18.66.51-37.32,1.05-56,1.49a4.54,4.54,0,0,0-4.2,2.61q-14.42,23.58-28.92,47.11a21.23,21.23,0,0,0-1.07,2.42c1.53,0,2.71,0,3.89,0,17.71-.48,35.41-1,53.13-1.39a5.89,5.89,0,0,0,5.64-3.25c9.18-15.15,18.51-30.2,27.78-45.29C517.38,233.37,517.92,232.33,518.78,230.8Z"/><path class="cls-3" d="M556.42,364.8c-.76-1.3-1.31-2.2-1.81-3.14-9.51-17.55-19-35.13-28.56-52.64a5.33,5.33,0,0,1,0-5.85c9.64-17.62,19.16-35.3,28.72-53,.45-.82,1-1.6,1.63-2.73.67,1,1.23,1.68,1.65,2.46q14.52,26.79,29,53.6c.84,1.53,1.31,2.8.34,4.58q-15,27.54-29.91,55.16C557.27,363.67,557,364,556.42,364.8Zm.06-5.26c.5-.77.86-1.24,1.14-1.75,9-16.52,17.87-33.06,26.88-49.55a4.2,4.2,0,0,0-.17-4.59C575.51,287.46,566.77,271.23,558,255a25.87,25.87,0,0,0-1.62-2.31c-.68,1.14-1.19,1.94-1.63,2.77-8.61,15.9-17.17,31.82-25.86,47.67a5.33,5.33,0,0,0,0,5.86c8.7,15.85,17.25,31.78,25.87,47.67C555.22,357.58,555.8,358.43,556.48,359.54Z"/><path class="cls-3" d="M892.66,364.8c-.75-1.3-1.31-2.2-1.81-3.13-9.51-17.56-19-35.14-28.55-52.65a5.33,5.33,0,0,1,0-5.85c9.64-17.61,19.16-35.3,28.72-53,.45-.82,1-1.61,1.64-2.74.66,1,1.23,1.68,1.64,2.45q14.52,26.81,29,53.61c.82,1.53,1.31,2.79.34,4.58q-15,27.52-29.91,55.15C893.52,363.67,893.2,364,892.66,364.8Zm.1-112.22c-.55.84-.91,1.31-1.19,1.82-9,16.52-17.87,33.06-26.89,49.55a4.24,4.24,0,0,0,.19,4.59q13.32,24.45,26.54,48.93a19.61,19.61,0,0,0,1.44,2c.62-1,1.07-1.72,1.46-2.45,8.66-16,17.28-32,26-48a5.33,5.33,0,0,0,0-5.86c-8.69-15.86-17.25-31.78-25.85-47.68C894,254.65,893.52,253.86,892.76,252.58Z"/><path class="cls-3" d="M691.27,674.5c-3.54,0-6.61.08-9.67,0-17.7-.47-35.41-1-53.11-1.41a6.23,6.23,0,0,1-6-3.38c-10.21-16.88-20.6-33.65-30.92-50.46-.61-1-1.18-2-2-3.25a17.51,17.51,0,0,1,2.07-.24q31.2.86,62.39,1.7a3.93,3.93,0,0,1,3.69,2.13q16.28,26.63,32.64,53.18C690.69,673.15,690.84,673.59,691.27,674.5Zm-97-56.11c.54,1.08.81,1.72,1.17,2.31,9.7,15.8,19.44,31.58,29.09,47.42a4.51,4.51,0,0,0,4.3,2.38c18.3.44,36.6,1,54.91,1.47.89,0,1.78-.12,3.1-.22-.72-1.26-1.2-2.18-1.75-3.06-9.33-15.19-18.75-30.33-28-45.6-1.5-2.5-3.22-3.28-6-3.34-17-.37-34-.9-51-1.35C598.35,618.35,596.57,618.39,594.24,618.39Z"/><path class="cls-3" d="M388.47,461.7c-.9-1.47-1.48-2.33-2-3.23q-14.28-26.34-28.56-52.68c-1-1.81-1.29-3.24-.21-5.22,9.76-17.83,19.4-35.73,29.08-53.61.39-.7.85-1.37,1.65-2.65L420.23,403Zm-29-58.93c3.14,7.35,27.28,51.24,29.32,53.2l28.66-53c-9.64-17.79-19.17-35.4-29.05-53.66Z"/><path class="cls-3" d="M692.73,403c10.5-19.41,20.95-38.74,31.61-58.43a16.31,16.31,0,0,1,1.6,2q14.71,27.14,29.39,54.26a3.62,3.62,0,0,1,.21,3.94q-15.1,27.7-30.1,55.49a9.92,9.92,0,0,1-1.06,1.19Zm31.87,53.66,29-53.53c-6.15-12.87-27.08-50.84-29.34-53.14l-28.68,53Z"/><path class="cls-3" d="M52.11,344.11,84,403,52.49,461.2c-2.11-2.12-28.37-49.94-32.14-58.4C30.76,383.57,41.25,364.19,52.11,344.11ZM81.17,403,52.11,349.33,23.19,402.76c2.95,7,27.26,51.21,29.3,53.22Z"/><path class="cls-3" d="M724.74,732c10.78,19.94,21.24,39.27,31.73,58.66-10.52,19.45-21,38.77-31.67,58.52-.75-1.07-1.33-1.74-1.75-2.51q-14.53-26.8-29.07-53.61a4.2,4.2,0,0,1-.13-4.58c9.86-18.06,19.61-36.16,29.41-54.25C723.58,733.63,724,733.09,724.74,732Zm-.14,112.34c9.94-18.37,19.48-36,28.95-53.5-4.8-10.61-27.34-51.39-29.39-53.06l-28.61,52.89C705.19,808.47,714.69,826,724.6,844.33Z"/><path class="cls-3" d="M52,849.24l-31.7-58.59c10.49-19.41,21-38.74,31.58-58.39a10.77,10.77,0,0,1,1.46,1.67q14.81,27.29,29.56,54.58a3.6,3.6,0,0,1,.2,3.93Q68,820,53.14,847.63A19.37,19.37,0,0,1,52,849.24Zm.17-4.91c10-18.45,19.52-36.1,29.05-53.7C71.5,772.79,62,755.2,52.11,737l-29,53.67C32.66,808.37,42.2,826,52.12,844.33Z"/><path class="cls-3" d="M52.21,926c.79,1.35,1.34,2.26,1.85,3.19,9.45,17.46,18.86,34.94,28.39,52.35,1.16,2.13,1.31,3.77,0,5.88-2.1,3.44-3.92,7.06-5.82,10.64-.7,1.33-1.54,2.08-3.34,1,2-3.76,3.9-7.6,6.11-11.23a5.68,5.68,0,0,0,.11-6.51c-8.61-15.61-17-31.33-25.52-47-.5-.92-1.08-1.78-1.83-3-.69,1-1.25,1.73-1.67,2.51-8.67,16-17.29,32-26,48a4.88,4.88,0,0,0,.05,5.56c1.8,2.94,3.34,6,5,9.07.49.9.88,1.85,1.33,2.8-1.6.78-2.46.31-3.13-.95C25.5,994.12,23.34,990,21,986c-1-1.73,0-2.94.69-4.26Q31.29,964,40.89,946.28q4.76-8.78,9.53-17.56C50.89,927.86,51.49,927.06,52.21,926Z"/><path class="cls-3" d="M388.43,931.05c-.89,1.44-1.47,2.3-2,3.22C378,950,369.55,965.66,361,981.28a5.68,5.68,0,0,0,.09,6.51c2.21,3.63,4.08,7.47,6.1,11.25-1.52.9-2.45.58-3.14-.7-2.26-4.19-4.5-8.38-6.82-12.53-.8-1.43-.08-2.5.54-3.64l8.66-16,19.86-36.69c.56-1,1.17-2.06,1.93-3.4a15.5,15.5,0,0,1,1.54,2c9.75,18,19.45,36,29.24,53.92a4.41,4.41,0,0,1,0,4.93c-2.11,3.58-4,7.28-6,10.95-.68,1.29-1.45,2.19-3.41,1.23,1.62-3,3.23-6,4.79-9,3.67-7.09,3.74-4.23,0-11.13-7.85-14.68-15.82-29.29-23.75-43.93C390,933.9,389.39,932.77,388.43,931.05Z"/><path class="cls-3" d="M724.64,925.82c.82,1.42,1.31,2.23,1.75,3.06,9.51,17.56,19,35.15,28.57,52.67a5.16,5.16,0,0,1,0,5.87c-2,3.35-3.78,6.87-5.63,10.33-.66,1.21-1.31,2.34-3.27,1.5a18.94,18.94,0,0,1,.77-2.11c1.9-3.56,3.81-7.13,5.77-10.66a3.35,3.35,0,0,0,.23-3.64q-13.74-25.22-27.37-50.47c-.17-.31-.32-.63-.68-1.33-.81,1.26-1.35,2-1.78,2.77-8.67,16-17.28,32-26,48a4.93,4.93,0,0,0,.09,5.56c2.23,3.78,4.22,7.69,6.39,11.7-1.42.84-2.38.75-3.09-.55-2.33-4.28-4.7-8.54-6.91-12.88a3.62,3.62,0,0,1,.18-2.63c.64-1.53,1.54-3,2.33-4.41q13.32-24.63,26.64-49.25C723.12,928.29,723.75,927.32,724.64,925.82Z"/></g></g></g></g></svg>